<svg xmlns="http://www.w3.org/2000/svg"  viewBox="0 0 48 48" width="48px" height="48px"><polygon fill="#f55376" points="17,45 31,45 31,42 27,41 26,40 26,20 22,20 22,40 21,41 17,42"/><path fill="#3ddab4" d="M32.761,13.152C33.513,12.51,34,11.566,34,10.5C34,8.567,32.433,7,30.5,7	c-0.173,0-0.339,0.027-0.505,0.051C29.995,7.034,30,7.017,30,7c0-1.105-0.895-2-2-2c-0.499,0-0.949,0.189-1.299,0.491	C26.104,4.031,24.675,3,23,3c-1.169,0-2.21,0.51-2.942,1.309C19.751,4.116,19.39,4,19,4c-1.105,0-2,0.895-2,2	c0,0.017,0.005,0.033,0.005,0.05C15.309,6.292,14,7.737,14,9.5c0,0.898,0.348,1.709,0.905,2.329C14.361,12.186,14,12.8,14,13.5	c0,0.7,0.361,1.314,0.905,1.671C14.348,15.791,14,16.602,14,17.5c0,1.933,1.567,3.5,3.5,3.5c0.252,0,0.497-0.029,0.734-0.08	C18.568,21.559,19.229,22,20,22c0.607,0,1.144-0.276,1.511-0.703C22.123,22.313,23.227,23,24.5,23c1.563,0,2.872-1.032,3.321-2.447	C28.321,20.829,28.888,21,29.5,21c1.933,0,3.5-1.567,3.5-3.5c0-0.252-0.029-0.497-0.08-0.734C33.559,16.432,34,15.771,34,15	C34,14.165,33.488,13.451,32.761,13.152z"/><rect width="3" height="8.051" x="18.25" y="27.85" fill="#f55376" transform="rotate(-53.843 19.75 31.875)"/><rect width="8.602" height="3" x="24.199" y="34" fill="#f55376" transform="rotate(-35.541 28.5 35.5)"/><path fill="#3ddab4" d="M18.89,27.058C18.96,26.885,19,26.698,19,26.5c0-0.678-0.453-1.244-1.07-1.43	C17.744,24.453,17.178,24,16.5,24c-0.386,0-0.734,0.15-1,0.389C15.234,24.15,14.886,24,14.5,24c-0.655,0-1.207,0.423-1.411,1.009	C13.059,25.008,13.031,25,13,25c-1.105,0-2,0.895-2,2c0,0.526,0.207,1,0.539,1.357C11.212,28.632,11,29.039,11,29.5	c0,0.828,0.672,1.5,1.5,1.5c0.198,0,0.385-0.04,0.558-0.11C13.23,31.528,13.807,32,14.5,32c0.25,0,0.482-0.067,0.689-0.175	C15.437,31.936,15.711,32,16,32c1.105,0,2-0.895,2-2c0-0.032-0.008-0.063-0.01-0.095C18.15,29.963,18.32,30,18.5,30	c0.828,0,1.5-0.672,1.5-1.5C20,27.807,19.528,27.23,18.89,27.058z"/><path fill="#3ddab4" d="M37,31.5c0-0.655-0.423-1.207-1.009-1.411C35.992,30.059,36,30.031,36,30c0-1.105-0.895-2-2-2	c-0.526,0-1,0.207-1.357,0.539C32.368,28.212,31.961,28,31.5,28c-0.678,0-1.244,0.453-1.43,1.07C29.453,29.256,29,29.822,29,30.5	c0,0.461,0.212,0.868,0.539,1.143C29.207,32,29,32.474,29,33c0,1.105,0.895,2,2,2c0.375,0,0.721-0.11,1.021-0.289	C32.125,35.439,32.744,36,33.5,36c0.693,0,1.27-0.472,1.442-1.11C35.115,34.96,35.302,35,35.5,35c0.828,0,1.5-0.672,1.5-1.5	c0-0.386-0.15-0.734-0.389-1C36.85,32.234,37,31.886,37,31.5z"/><path fill="#00b569" d="M22,21.927C22.633,22.585,23.514,23,24.5,23c0.54,0,1.046-0.13,1.5-0.35V20h-4V21.927z"/><path fill="#00b569" d="M31.128,31.779l-2.1,1.5C29.165,34.25,29.991,35,31,35c0.375,0,0.721-0.11,1.021-0.289	c0.005,0.034,0.024,0.062,0.031,0.095l0.819-0.585L31.128,31.779z"/><path fill="#00b569" d="M19.356,29.729l-1.971-1.44l-1.771,2.422L17,31.723c0.596-0.346,1-0.984,1-1.723	c0-0.032-0.008-0.063-0.01-0.095C18.15,29.963,18.32,30,18.5,30C18.819,30,19.113,29.899,19.356,29.729z"/></svg>